<mxfile host="Electron" modified="2023-11-09T17:18:47.479Z" agent="Mozilla/5.0 (Windows NT 10.0; Win64; x64) AppleWebKit/537.36 (KHTML, like Gecko) draw.io/22.0.3 Chrome/114.0.5735.289 Electron/25.8.4 Safari/537.36" etag="GWlT6T4DjWpvWgxQ1IWL" version="22.0.3" type="device">
  <diagram id="C5RBs43oDa-KdzZeNtuy" name="Page-1">
    <mxGraphModel dx="1036" dy="606" grid="1" gridSize="10" guides="1" tooltips="1" connect="1" arrows="1" fold="1" page="1" pageScale="1" pageWidth="827" pageHeight="1169" math="0" shadow="0">
      <root>
        <mxCell id="WIyWlLk6GJQsqaUBKTNV-0" />
        <mxCell id="WIyWlLk6GJQsqaUBKTNV-1" parent="WIyWlLk6GJQsqaUBKTNV-0" />
        <mxCell id="MLnVwpXvPS_MH8pCmM1l-2" style="edgeStyle=orthogonalEdgeStyle;rounded=0;orthogonalLoop=1;jettySize=auto;html=1;" parent="WIyWlLk6GJQsqaUBKTNV-1" source="MLnVwpXvPS_MH8pCmM1l-0" target="MLnVwpXvPS_MH8pCmM1l-1" edge="1">
          <mxGeometry relative="1" as="geometry" />
        </mxCell>
        <mxCell id="MLnVwpXvPS_MH8pCmM1l-0" value="start" style="ellipse;whiteSpace=wrap;html=1;" parent="WIyWlLk6GJQsqaUBKTNV-1" vertex="1">
          <mxGeometry x="260" y="60" width="120" height="80" as="geometry" />
        </mxCell>
        <mxCell id="MLnVwpXvPS_MH8pCmM1l-4" style="edgeStyle=orthogonalEdgeStyle;rounded=0;orthogonalLoop=1;jettySize=auto;html=1;entryX=0.5;entryY=0;entryDx=0;entryDy=0;" parent="WIyWlLk6GJQsqaUBKTNV-1" source="MLnVwpXvPS_MH8pCmM1l-1" target="MLnVwpXvPS_MH8pCmM1l-3" edge="1">
          <mxGeometry relative="1" as="geometry" />
        </mxCell>
        <mxCell id="MLnVwpXvPS_MH8pCmM1l-1" value="a,b,c,max=a,min=a" style="shape=parallelogram;perimeter=parallelogramPerimeter;whiteSpace=wrap;html=1;fixedSize=1;" parent="WIyWlLk6GJQsqaUBKTNV-1" vertex="1">
          <mxGeometry x="220" y="210" width="200" height="120" as="geometry" />
        </mxCell>
        <mxCell id="MLnVwpXvPS_MH8pCmM1l-8" value="true" style="edgeStyle=orthogonalEdgeStyle;rounded=0;orthogonalLoop=1;jettySize=auto;html=1;entryX=0;entryY=0.5;entryDx=0;entryDy=0;" parent="WIyWlLk6GJQsqaUBKTNV-1" source="MLnVwpXvPS_MH8pCmM1l-3" target="MLnVwpXvPS_MH8pCmM1l-7" edge="1">
          <mxGeometry relative="1" as="geometry" />
        </mxCell>
        <mxCell id="MLnVwpXvPS_MH8pCmM1l-14" value="false" style="edgeStyle=orthogonalEdgeStyle;rounded=0;orthogonalLoop=1;jettySize=auto;html=1;entryX=0.5;entryY=0;entryDx=0;entryDy=0;" parent="WIyWlLk6GJQsqaUBKTNV-1" source="MLnVwpXvPS_MH8pCmM1l-3" target="MLnVwpXvPS_MH8pCmM1l-5" edge="1">
          <mxGeometry relative="1" as="geometry" />
        </mxCell>
        <mxCell id="MLnVwpXvPS_MH8pCmM1l-3" value="max&amp;gt;b" style="rhombus;whiteSpace=wrap;html=1;" parent="WIyWlLk6GJQsqaUBKTNV-1" vertex="1">
          <mxGeometry x="235" y="410" width="170" height="120" as="geometry" />
        </mxCell>
        <mxCell id="MLnVwpXvPS_MH8pCmM1l-18" value="true" style="edgeStyle=orthogonalEdgeStyle;rounded=0;orthogonalLoop=1;jettySize=auto;html=1;entryX=0;entryY=0.75;entryDx=0;entryDy=0;exitX=1;exitY=1;exitDx=0;exitDy=0;" parent="WIyWlLk6GJQsqaUBKTNV-1" source="MLnVwpXvPS_MH8pCmM1l-5" target="MLnVwpXvPS_MH8pCmM1l-17" edge="1">
          <mxGeometry relative="1" as="geometry">
            <Array as="points">
              <mxPoint x="338" y="730" />
              <mxPoint x="450" y="730" />
              <mxPoint x="450" y="775" />
            </Array>
          </mxGeometry>
        </mxCell>
        <mxCell id="MLnVwpXvPS_MH8pCmM1l-21" style="edgeStyle=orthogonalEdgeStyle;rounded=0;orthogonalLoop=1;jettySize=auto;html=1;entryX=0.5;entryY=0;entryDx=0;entryDy=0;" parent="WIyWlLk6GJQsqaUBKTNV-1" source="MLnVwpXvPS_MH8pCmM1l-5" target="MLnVwpXvPS_MH8pCmM1l-20" edge="1">
          <mxGeometry relative="1" as="geometry" />
        </mxCell>
        <mxCell id="MLnVwpXvPS_MH8pCmM1l-30" value="false" style="edgeLabel;html=1;align=center;verticalAlign=middle;resizable=0;points=[];" parent="MLnVwpXvPS_MH8pCmM1l-21" vertex="1" connectable="0">
          <mxGeometry x="-0.0154" y="4" relative="1" as="geometry">
            <mxPoint as="offset" />
          </mxGeometry>
        </mxCell>
        <mxCell id="MLnVwpXvPS_MH8pCmM1l-5" value="max&amp;gt;c" style="rhombus;whiteSpace=wrap;html=1;" parent="WIyWlLk6GJQsqaUBKTNV-1" vertex="1">
          <mxGeometry x="235" y="610" width="170" height="120" as="geometry" />
        </mxCell>
        <mxCell id="MLnVwpXvPS_MH8pCmM1l-13" style="edgeStyle=orthogonalEdgeStyle;rounded=0;orthogonalLoop=1;jettySize=auto;html=1;entryX=1;entryY=0.5;entryDx=0;entryDy=0;" parent="WIyWlLk6GJQsqaUBKTNV-1" source="MLnVwpXvPS_MH8pCmM1l-7" target="MLnVwpXvPS_MH8pCmM1l-5" edge="1">
          <mxGeometry relative="1" as="geometry">
            <Array as="points">
              <mxPoint x="545" y="570" />
              <mxPoint x="433" y="570" />
              <mxPoint x="433" y="670" />
            </Array>
          </mxGeometry>
        </mxCell>
        <mxCell id="MLnVwpXvPS_MH8pCmM1l-7" value="max=b" style="rounded=1;whiteSpace=wrap;html=1;" parent="WIyWlLk6GJQsqaUBKTNV-1" vertex="1">
          <mxGeometry x="485" y="470" width="120" height="60" as="geometry" />
        </mxCell>
        <mxCell id="MLnVwpXvPS_MH8pCmM1l-22" style="edgeStyle=orthogonalEdgeStyle;rounded=0;orthogonalLoop=1;jettySize=auto;html=1;entryX=1;entryY=0.5;entryDx=0;entryDy=0;" parent="WIyWlLk6GJQsqaUBKTNV-1" source="MLnVwpXvPS_MH8pCmM1l-17" target="MLnVwpXvPS_MH8pCmM1l-20" edge="1">
          <mxGeometry relative="1" as="geometry">
            <Array as="points">
              <mxPoint x="580" y="830" />
              <mxPoint x="441" y="830" />
              <mxPoint x="441" y="925" />
            </Array>
          </mxGeometry>
        </mxCell>
        <mxCell id="MLnVwpXvPS_MH8pCmM1l-17" value="max=c" style="rounded=1;whiteSpace=wrap;html=1;" parent="WIyWlLk6GJQsqaUBKTNV-1" vertex="1">
          <mxGeometry x="520" y="730" width="120" height="60" as="geometry" />
        </mxCell>
        <mxCell id="MLnVwpXvPS_MH8pCmM1l-24" style="edgeStyle=orthogonalEdgeStyle;rounded=0;orthogonalLoop=1;jettySize=auto;html=1;entryX=0;entryY=0.5;entryDx=0;entryDy=0;" parent="WIyWlLk6GJQsqaUBKTNV-1" source="MLnVwpXvPS_MH8pCmM1l-20" target="MLnVwpXvPS_MH8pCmM1l-23" edge="1">
          <mxGeometry relative="1" as="geometry" />
        </mxCell>
        <mxCell id="MLnVwpXvPS_MH8pCmM1l-25" value="true" style="edgeLabel;html=1;align=center;verticalAlign=middle;resizable=0;points=[];" parent="MLnVwpXvPS_MH8pCmM1l-24" vertex="1" connectable="0">
          <mxGeometry x="0.0647" y="-2" relative="1" as="geometry">
            <mxPoint as="offset" />
          </mxGeometry>
        </mxCell>
        <mxCell id="MLnVwpXvPS_MH8pCmM1l-27" style="edgeStyle=orthogonalEdgeStyle;rounded=0;orthogonalLoop=1;jettySize=auto;html=1;entryX=0.5;entryY=0;entryDx=0;entryDy=0;" parent="WIyWlLk6GJQsqaUBKTNV-1" source="MLnVwpXvPS_MH8pCmM1l-20" target="MLnVwpXvPS_MH8pCmM1l-26" edge="1">
          <mxGeometry relative="1" as="geometry" />
        </mxCell>
        <mxCell id="MLnVwpXvPS_MH8pCmM1l-31" value="false" style="edgeLabel;html=1;align=center;verticalAlign=middle;resizable=0;points=[];" parent="MLnVwpXvPS_MH8pCmM1l-27" vertex="1" connectable="0">
          <mxGeometry x="-0.1529" y="3" relative="1" as="geometry">
            <mxPoint as="offset" />
          </mxGeometry>
        </mxCell>
        <mxCell id="MLnVwpXvPS_MH8pCmM1l-20" value="min&amp;gt;b" style="rhombus;whiteSpace=wrap;html=1;" parent="WIyWlLk6GJQsqaUBKTNV-1" vertex="1">
          <mxGeometry x="252.5" y="860" width="135" height="130" as="geometry" />
        </mxCell>
        <mxCell id="MLnVwpXvPS_MH8pCmM1l-23" value="min=b" style="rounded=1;whiteSpace=wrap;html=1;" parent="WIyWlLk6GJQsqaUBKTNV-1" vertex="1">
          <mxGeometry x="470" y="990" width="120" height="60" as="geometry" />
        </mxCell>
        <mxCell id="MLnVwpXvPS_MH8pCmM1l-33" value="true" style="edgeStyle=orthogonalEdgeStyle;rounded=0;orthogonalLoop=1;jettySize=auto;html=1;entryX=0.5;entryY=0;entryDx=0;entryDy=0;" parent="WIyWlLk6GJQsqaUBKTNV-1" source="MLnVwpXvPS_MH8pCmM1l-26" target="MLnVwpXvPS_MH8pCmM1l-32" edge="1">
          <mxGeometry relative="1" as="geometry" />
        </mxCell>
        <mxCell id="MLnVwpXvPS_MH8pCmM1l-35" style="edgeStyle=orthogonalEdgeStyle;rounded=0;orthogonalLoop=1;jettySize=auto;html=1;entryX=0.5;entryY=0;entryDx=0;entryDy=0;" parent="WIyWlLk6GJQsqaUBKTNV-1" source="MLnVwpXvPS_MH8pCmM1l-26" target="MLnVwpXvPS_MH8pCmM1l-36" edge="1">
          <mxGeometry relative="1" as="geometry">
            <mxPoint x="320" y="1430" as="targetPoint" />
          </mxGeometry>
        </mxCell>
        <mxCell id="MLnVwpXvPS_MH8pCmM1l-41" value="false" style="edgeLabel;html=1;align=center;verticalAlign=middle;resizable=0;points=[];" parent="MLnVwpXvPS_MH8pCmM1l-35" vertex="1" connectable="0">
          <mxGeometry x="-0.1955" y="3" relative="1" as="geometry">
            <mxPoint as="offset" />
          </mxGeometry>
        </mxCell>
        <mxCell id="MLnVwpXvPS_MH8pCmM1l-26" value="min&amp;gt;c" style="rhombus;whiteSpace=wrap;html=1;" parent="WIyWlLk6GJQsqaUBKTNV-1" vertex="1">
          <mxGeometry x="252.5" y="1150" width="135" height="110" as="geometry" />
        </mxCell>
        <mxCell id="MLnVwpXvPS_MH8pCmM1l-29" style="edgeStyle=orthogonalEdgeStyle;rounded=0;orthogonalLoop=1;jettySize=auto;html=1;entryX=0.907;entryY=0.364;entryDx=0;entryDy=0;entryPerimeter=0;" parent="WIyWlLk6GJQsqaUBKTNV-1" source="MLnVwpXvPS_MH8pCmM1l-23" target="MLnVwpXvPS_MH8pCmM1l-26" edge="1">
          <mxGeometry relative="1" as="geometry">
            <Array as="points">
              <mxPoint x="530" y="1110" />
              <mxPoint x="360" y="1110" />
            </Array>
          </mxGeometry>
        </mxCell>
        <mxCell id="MLnVwpXvPS_MH8pCmM1l-32" value="min=c" style="rounded=1;whiteSpace=wrap;html=1;" parent="WIyWlLk6GJQsqaUBKTNV-1" vertex="1">
          <mxGeometry x="480" y="1250" width="120" height="60" as="geometry" />
        </mxCell>
        <mxCell id="MLnVwpXvPS_MH8pCmM1l-36" value="output min, ((a+b+c)- max - min), max" style="rounded=1;whiteSpace=wrap;html=1;" parent="WIyWlLk6GJQsqaUBKTNV-1" vertex="1">
          <mxGeometry x="237.5" y="1450" width="167.5" height="100" as="geometry" />
        </mxCell>
        <mxCell id="MLnVwpXvPS_MH8pCmM1l-37" value="end" style="ellipse;whiteSpace=wrap;html=1;" parent="WIyWlLk6GJQsqaUBKTNV-1" vertex="1">
          <mxGeometry x="580" y="1680" width="120" height="80" as="geometry" />
        </mxCell>
        <mxCell id="MLnVwpXvPS_MH8pCmM1l-38" style="edgeStyle=orthogonalEdgeStyle;rounded=0;orthogonalLoop=1;jettySize=auto;html=1;entryX=0.1;entryY=0.238;entryDx=0;entryDy=0;entryPerimeter=0;" parent="WIyWlLk6GJQsqaUBKTNV-1" source="MLnVwpXvPS_MH8pCmM1l-36" target="MLnVwpXvPS_MH8pCmM1l-37" edge="1">
          <mxGeometry relative="1" as="geometry" />
        </mxCell>
        <mxCell id="MLnVwpXvPS_MH8pCmM1l-40" style="edgeStyle=orthogonalEdgeStyle;rounded=0;orthogonalLoop=1;jettySize=auto;html=1;entryX=0.988;entryY=0.09;entryDx=0;entryDy=0;entryPerimeter=0;" parent="WIyWlLk6GJQsqaUBKTNV-1" source="MLnVwpXvPS_MH8pCmM1l-32" target="MLnVwpXvPS_MH8pCmM1l-36" edge="1">
          <mxGeometry relative="1" as="geometry" />
        </mxCell>
      </root>
    </mxGraphModel>
  </diagram>
</mxfile>
